<?xml version="1.0" encoding="UTF-8"?>
<svg width="14px" height="14px" viewBox="0 0 14 14" version="1.1" xmlns="http://www.w3.org/2000/svg" xmlns:xlink="http://www.w3.org/1999/xlink">
    <!-- Generator: Sketch 49.1 (51147) - http://www.bohemiancoding.com/sketch -->
    <title>search icon</title>
    <desc>Created with Sketch.</desc>
    <defs></defs>
    <g id="Page-1" stroke="none" stroke-width="1" fill="none" fill-rule="evenodd">
        <g id="spotify-001" transform="translate(-170.000000, -18.000000)" fill="#282828">
            <g id="search-icon" transform="translate(170.000000, 18.000000)">
                <path d="M5.916,1 C3.205,1 1,3.206 1,5.917 C1,8.627 3.205,10.833 5.916,10.833 C8.627,10.833 10.833,8.627 10.833,5.917 C10.833,3.206 8.627,1 5.916,1 M5.916,11.833 C2.654,11.833 0,9.179 0,5.917 C0,2.654 2.654,0 5.916,0 C9.179,0 11.833,2.654 11.833,5.917 C11.833,9.179 9.179,11.833 5.916,11.833" id="Fill-185"></path>
                <path d="M13.3,13.3 L13.3,13.3 C12.909,13.691 12.276,13.691 11.886,13.3 L10,11.414 L11.414,10 L13.3,11.886 C13.691,12.276 13.691,12.909 13.3,13.3" id="Fill-186"></path>
            </g>
        </g>
    </g>
</svg>