<?xml version="1.0" encoding="UTF-8"?>
<svg width="29px" height="29px" viewBox="0 0 29 29" version="1.1" xmlns="http://www.w3.org/2000/svg" xmlns:xlink="http://www.w3.org/1999/xlink">
    <!-- Generator: Sketch 49.1 (51147) - http://www.bohemiancoding.com/sketch -->
    <title>user icon</title>
    <desc>Created with Sketch.</desc>
    <defs></defs>
    <g id="Page-1" stroke="none" stroke-width="1" fill="none" fill-rule="evenodd">
        <g id="spotify-001" transform="translate(-1256.000000, -11.000000)" fill="#ADAFB2">
            <g id="user-icon" transform="translate(1256.060000, 11.000000)">
                <path d="M17.885,11.351 C17.885,13.754 16.12,16.856 13.942,16.856 C11.765,16.856 10,13.754 10,11.351 C10,8.948 11.765,7 13.942,7 C16.12,7 17.885,8.948 17.885,11.351" id="Fill-90"></path>
                <path d="M21.136,20.265 L21.136,20.265 C21.136,18.462 19.674,17 17.871,17 L16.894,17 C16.087,17.778 15.11,18.274 14.044,18.274 C12.978,18.274 12.001,17.778 11.194,17 L10.265,17 C8.462,17 7,18.462 7,20.265 C7,20.732 7.378,21.111 7.845,21.111 L20.29,21.111 C20.757,21.111 21.136,20.732 21.136,20.265" id="Fill-91"></path>
                <path d="M14.25,1 C6.944,1 1,6.944 1,14.25 C1,21.556 6.944,27.5 14.25,27.5 C21.556,27.5 27.5,21.556 27.5,14.25 C27.5,6.944 21.556,1 14.25,1 M14.25,28.5 C6.393,28.5 0,22.107 0,14.25 C0,6.393 6.393,0 14.25,0 C22.107,0 28.5,6.393 28.5,14.25 C28.5,22.107 22.107,28.5 14.25,28.5" id="Fill-92"></path>
            </g>
        </g>
    </g>
</svg>